#N canvas 529 681 611 350 10;
#X obj 384 165 r \$0-read;
#X obj 384 195 faust-control \$0;
#X obj 384 225 s \$0-write;
#X obj 43 198 r \$0-in;
#X obj 43 258 s \$0-out;
#X obj 80 60 hsl 128 15 -50 50 0 0 empty empty empty -2 -8 0 10 -262144
-1 -1 0 1;
#X floatatom 233 106 8 0 0 0 - - -, f 8;
#X text 21 99 dev1;
#X text 24 108 pos;
#X text 264 95 Finger position;
#X text 266 107 m;
#X text 66 45 Position of finger interacting with resonator;
#X obj 137 313 dac~;
#X obj 147 282 *~ 0.1;
#X obj 43 228 touch_a_membrane_underneath~;
#X obj 68 84 make-smooth-audio-signal~;
#X connect 0 0 1 0;
#X connect 1 0 2 0;
#X connect 3 0 14 0;
#X connect 5 0 15 0;
#X connect 13 0 12 0;
#X connect 13 0 12 1;
#X connect 14 0 4 0;
#X connect 14 2 13 0;
#X connect 15 0 14 1;
#X connect 15 1 6 0;
